<?xml version="1.0" standalone="no"?>
<!DOCTYPE svg PUBLIC "-//W3C//DTD SVG 20010904//EN"
 "http://www.w3.org/TR/2001/REC-SVG-20010904/DTD/svg10.dtd">
<svg version="1.0" xmlns="http://www.w3.org/2000/svg"
 width="50px" height="39px" viewBox="0 0 800.000000 534.000000"
 preserveAspectRatio="xMidYMid meet">
<metadata>
Created by potrace 1.16, written by Peter Selinger 2001-2019
</metadata>
<g transform="translate(0.000000,534.000000) scale(0.100000,-0.100000)"
fill="#000000" stroke="none">
<path d="M2375 4275 c-186 -50 -392 -171 -534 -315 -138 -140 -196 -257 -193
-396 3 -220 210 -361 522 -357 99 1 131 6 235 36 66 20 146 45 178 57 68 26
130 81 125 113 -5 33 -65 33 -215 -2 -334 -77 -538 -64 -637 40 -38 41 -39 41
-34 107 13 185 218 392 497 502 57 23 128 46 158 51 67 13 90 0 134 -70 29
-48 55 -65 94 -61 34 4 46 30 40 90 -17 162 -184 255 -370 205z"/>
<path d="M3154 4215 c-9 -14 -33 -90 -54 -169 -45 -173 -64 -232 -141 -437
-77 -207 -85 -241 -64 -296 9 -24 26 -50 38 -58 22 -15 82 -20 112 -9 22 9 80
97 156 238 l64 120 5 -75 c11 -143 87 -229 205 -229 60 0 111 15 141 41 27 25
36 24 65 -7 46 -49 97 -69 179 -69 92 1 162 31 245 106 73 68 109 141 103 212
-7 82 -40 141 -104 183 -95 63 -177 78 -249 45 -94 -42 -208 -212 -222 -328
-3 -29 -9 -53 -12 -53 -111 -5 -155 -4 -166 5 -9 6 -14 45 -17 115 -4 82 -10
115 -28 153 -36 75 -69 97 -166 109 l-21 3 25 90 c13 50 35 125 49 168 27 87
25 105 -18 142 -42 35 -102 35 -125 0z m888 -561 c12 -8 10 -61 -6 -97 -20
-49 -97 -112 -158 -129 -66 -19 -82 -14 -73 21 13 56 67 151 106 186 38 34 45
37 82 31 22 -4 44 -9 49 -12z"/>
<path d="M5212 3939 c-61 -12 -122 -48 -150 -89 -40 -59 -23 -111 96 -293 56
-86 72 -141 48 -165 -20 -20 -125 -28 -155 -12 -14 7 -20 17 -17 28 8 24 -24
59 -61 67 -27 5 -34 2 -58 -29 -31 -40 -28 -79 8 -130 70 -98 327 -115 412
-26 27 28 30 38 29 93 -1 89 -17 136 -80 229 -86 127 -88 133 -61 150 37 25
77 27 135 7 64 -22 87 -14 97 32 6 27 2 36 -31 70 -61 62 -129 85 -212 68z"/>
<path d="M5740 3851 c-114 -38 -251 -155 -285 -244 -22 -57 -16 -136 13 -194
46 -89 166 -167 285 -183 56 -8 214 -1 364 16 70 8 113 36 113 71 0 53 -29 60
-296 72 -152 7 -209 13 -233 25 -17 9 -31 18 -31 21 0 2 19 9 43 15 23 6 79
29 125 51 61 30 88 49 107 77 31 48 39 104 23 167 -10 39 -21 55 -54 78 -43
30 -127 44 -174 28z"/>
<path d="M4488 3840 c-108 -33 -248 -216 -248 -327 0 -152 156 -247 326 -198
230 66 332 226 255 400 -22 49 -68 81 -137 95 -27 5 -67 16 -89 24 -45 17 -67
18 -107 6z m149 -162 c42 -10 53 -17 53 -32 0 -34 -40 -103 -75 -130 -75 -58
-193 -81 -208 -41 -7 17 34 103 69 144 28 34 80 71 99 71 5 0 33 -6 62 -12z"/>
<path d="M1735 2841 c-31 -13 -101 -164 -258 -556 -241 -600 -288 -747 -267
-826 17 -62 82 -77 115 -26 7 12 30 72 50 132 19 61 50 146 68 190 l33 80 46
6 c25 4 60 14 77 24 18 9 39 14 45 12 7 -3 40 -52 74 -109 141 -240 224 -338
327 -388 33 -16 82 -32 108 -36 42 -6 51 -3 73 17 13 12 24 30 24 40 0 21 -45
59 -70 59 -30 0 -110 61 -154 119 -23 31 -82 122 -131 203 -48 80 -105 170
-127 198 -21 29 -38 55 -36 58 2 4 48 49 103 101 55 51 141 132 190 180 50 48
115 109 147 136 71 63 84 106 44 147 -35 34 -79 42 -119 21 -17 -9 -130 -113
-249 -232 -120 -119 -218 -215 -218 -214 0 12 163 391 196 454 60 116 58 171
-6 204 -32 16 -55 18 -85 6z"/>
<path d="M2850 2667 c-41 -21 -35 -116 8 -131 9 -3 35 -12 57 -20 31 -12 44
-13 64 -3 61 30 42 122 -31 152 -46 18 -65 19 -98 2z"/>
<path d="M3932 2588 c-3 -13 -26 -79 -50 -148 -36 -102 -103 -305 -118 -357
-2 -10 -13 -9 -45 2 -60 22 -113 18 -168 -10 -99 -50 -168 -164 -178 -295 l-5
-65 -82 3 c-44 2 -87 5 -95 8 -11 4 -13 26 -7 125 6 111 5 124 -15 164 -25 49
-75 82 -140 91 -35 4 -53 1 -91 -20 -47 -25 -48 -25 -58 -6 -13 25 -61 50 -95
50 -22 0 -30 -9 -51 -57 -74 -168 -94 -201 -152 -250 -60 -52 -116 -93 -126
-93 -19 0 -1 62 84 290 30 82 31 86 15 116 -27 52 -97 71 -127 37 -23 -26
-116 -280 -134 -363 -15 -74 -14 -89 12 -150 21 -49 58 -73 119 -78 53 -4 101
12 167 54 25 17 27 17 58 -9 70 -59 121 -25 221 145 49 85 126 178 147 178 4
0 6 -44 4 -98 -5 -109 9 -151 65 -204 37 -35 118 -61 165 -54 48 8 105 42 114
68 6 20 8 19 32 -12 30 -39 77 -60 131 -60 49 0 141 59 205 132 l43 50 22 -29
c40 -50 89 -73 159 -73 34 0 79 7 98 15 35 14 36 14 66 -15 34 -35 81 -40 113
-12 12 9 55 62 96 117 103 136 105 137 119 83 18 -64 65 -151 102 -188 35 -36
120 -80 153 -80 42 0 100 28 117 57 19 29 24 68 9 59 -4 -3 -42 1 -82 9 -60
13 -79 21 -100 46 -41 47 -53 105 -45 220 8 115 -3 145 -61 173 -51 24 -67 20
-130 -32 -52 -43 -61 -47 -86 -38 -38 14 -61 -12 -130 -144 -55 -105 -55 -105
-98 -112 -24 -4 -71 -12 -104 -17 -73 -13 -85 -3 -85 73 0 71 21 153 89 356
72 211 87 280 70 312 -19 37 -51 58 -92 58 -32 0 -40 -4 -45 -22z"/>
<path d="M6397 2330 c-122 -36 -167 -81 -167 -166 0 -75 30 -123 125 -204 87
-73 151 -152 139 -171 -3 -6 -23 -18 -43 -27 -29 -14 -74 -17 -246 -17 -115 0
-216 -4 -223 -8 -18 -12 13 -61 60 -92 52 -34 200 -58 332 -53 88 3 109 7 161
33 74 37 105 79 105 143 0 73 -48 149 -164 258 -84 80 -99 98 -90 112 15 24
69 41 133 41 43 1 59 -4 83 -24 32 -27 76 -33 96 -13 20 20 14 82 -11 119 -49
75 -171 104 -290 69z"/>
<path d="M5719 2316 c-102 -27 -179 -118 -179 -210 0 -73 37 -143 121 -227 77
-77 78 -79 53 -85 -35 -9 -203 3 -244 17 -43 16 -65 -5 -56 -53 10 -50 56 -74
180 -94 167 -27 299 -3 328 61 18 40 2 67 -97 170 -53 55 -103 113 -111 128
-36 67 24 137 122 145 47 4 63 0 113 -27 71 -37 79 -38 91 -7 21 56 -40 146
-122 181 -44 18 -135 19 -199 1z"/>
<path d="M5100 2227 c-138 -57 -263 -188 -301 -315 -11 -37 -10 -50 5 -97 39
-125 183 -173 393 -129 124 25 179 62 167 111 -10 38 -45 44 -186 32 -122 -10
-165 -8 -122 7 42 14 180 85 199 101 75 67 92 123 60 200 -40 96 -121 129
-215 90z"/>
</g>
</svg>
